<svg viewBox="0 0 610 457" version="1.1" xmlns="http://www.w3.org/2000/svg"><path fill="#000000"  stroke="none" opacity="1" d="M 313.5 60 L 318 63.5 L 318 73.5 Q 321 81 327.5 85 L 338.5 93 L 351.5 79 L 361.5 76 L 366.5 76 L 376 83.5 L 380 93.5 L 380 102.5 L 377 116.5 L 369 136.5 Q 379 145.5 384 159.5 L 387 172.5 Q 385.4 185.6 389 193.5 L 403 209.5 L 414 235.5 L 429 262.5 L 452 292.5 L 464 304.5 L 465 307.5 L 464 310 Q 455.8 310.4 453 304.5 L 450.5 301 Q 448.3 301.8 449 299.5 L 419 260.5 L 408 240.5 L 397 214.5 L 383 198.5 L 380 191.5 L 379 175.5 L 378 174.5 L 378 172.5 L 378 165.5 L 376 158.5 L 371 149.5 L 365.5 144 L 363 145.5 L 343 185.5 L 340.5 188 L 337.5 189 L 333 186.5 Q 333.5 182 330 181.5 L 330 172.5 L 327 155.5 L 327 138.5 L 328 137.5 L 328 127.5 L 329 126.5 L 330 115.5 L 336 99.5 L 321.5 89 L 312 79.5 Q 308.4 74.1 310 63.5 L 311 61 L 313.5 60 Z M 356 116 L 356 119 L 358 118 Q 359 115 356 116 Z M 338 168 L 338 171 L 340 170 Q 341 167 338 168 Z M 332 250 L 331 252 L 335 260 L 338 276 L 341 283 L 346 287 L 357 288 L 363 291 L 364 291 L 354 280 L 348 278 L 342 271 Q 342 261 337 256 L 332 250 Z M 368 294 L 368 295 L 368 294 Z M 369 295 L 369 296 L 369 295 Z M 370 296 L 370 297 L 370 296 Z "/><path fill="#000000"  stroke="none" opacity="1" d="M 250.5 104 Q 254.9 102.5 254 105.5 L 256 115 Q 264.7 116.1 269 122.5 L 282 148.5 L 287 170.5 L 296 186 Q 298.7 184.9 298 187.5 L 309 198.5 L 312 204.5 L 313 215.5 L 315 222.5 L 327.5 239 L 344 252.5 L 347 258.5 L 349 267.5 L 352.5 273 Q 361.8 276.2 367 283.5 L 380.5 298 L 383 299.5 L 388 305.5 L 389 310.5 L 385.5 312 L 382 309.5 L 370.5 297 L 370 298.5 L 373 301.5 L 378 311.5 L 381 319.5 L 382 327.5 L 381 330 L 375 327.5 L 363 301.5 L 357.5 296 L 344.5 294 L 336 289.5 L 330 279.5 L 324 255.5 L 318.5 250 L 306.5 247 L 299 240.5 L 295 226.5 L 294 208.5 L 287.5 200 Q 278.6 197.9 274 191.5 L 268 177.5 L 262 151.5 L 257 143 L 237 129.5 L 234 121.5 L 234 115.5 L 236 109 Q 239.8 108.3 241 111.5 L 244 124.5 L 246.5 127 L 260.5 136 L 266 141.5 L 273 156.5 Q 274.4 171.1 279 182.5 L 284.5 190 L 296 196 L 294.5 193 L 292 191.5 L 280 173.5 L 274 149.5 L 267 134.5 L 258.5 122 Q 251.6 121.4 248 117.5 Q 246.8 108.3 250.5 104 Z M 297 196 L 303 209 L 306 236 L 312 240 L 314 240 L 321 243 L 322 244 Q 312 234 306 221 L 305 209 L 301 200 L 297 196 Z "/><path fill="#000000"  stroke="none" opacity="1" d="M 222.5 115 L 228 117.5 L 234 132.5 L 238.5 137 L 246.5 140 L 259 150.5 L 262 156.5 L 262 167.5 L 267 187.5 L 275.5 201 L 284 207.5 L 285 212.5 Q 282.5 214 284 219.5 L 289 238.5 L 293 246 Q 295.7 244.9 295 247.5 L 299.5 252 L 313 260.5 L 319 270.5 L 324 291.5 L 330.5 298 Q 351.1 305.9 363 322.5 L 364 327 L 358.5 327 L 352 320.5 L 343.5 311 Q 329.7 305.8 320 296.5 L 317 291.5 L 314 282.5 L 314 278.5 L 310 268.5 L 303.5 261 L 293.5 256 L 289 251.5 L 282 238.5 L 277 221.5 L 276 213.5 L 277 209.5 L 268 204 L 260 188.5 L 254 167.5 L 254 156.5 L 250.5 151 L 228 136.5 Q 222.7 128.3 221 116.5 L 222.5 115 Z M 223 168 L 222 171 L 223 171 L 223 168 Z "/><path fill="#000000"  stroke="none" opacity="1" d="M 125.5 145 L 130.5 145 L 138 150.5 Q 146.3 163.2 150 180.5 L 156 190 Q 158.7 188.9 158 191.5 L 179 211.5 L 183 216.5 L 188 227.5 L 190 245.5 L 191 246.5 L 191 255.5 L 194 270.5 Q 197.1 278.9 203.5 284 L 206.5 286 L 219 297.5 L 229 312.5 L 236 334.5 L 244 352.5 L 251 360.5 L 259 374 Q 262 372.8 261 376.5 L 266 382.5 L 277 401.5 L 282.5 407 L 286 409.5 L 295 420.5 L 298 427.5 Q 297.5 430.5 293.5 430 L 286 423.5 Q 280.5 413 271 406.5 L 256 381.5 L 237 356.5 L 231 344.5 L 224 322.5 L 219 311.5 L 205.5 295 L 193 285.5 Q 186.5 278.5 184 267.5 L 182 244.5 L 179 227.5 Q 173 214 161.5 206 Q 159.3 206.8 160 204.5 L 153 198.5 L 143 184.5 L 134 160.5 L 128.5 153 L 123 148.5 L 125.5 145 Z "/><path fill="#000000"  stroke="none" opacity="1" d="M 212.5 156 Q 225.1 155.9 231 162.5 L 236 174.5 L 236 190.5 L 237 191.5 L 236 194.5 L 236 209.5 L 235 210.5 L 234 224.5 L 224 259.5 L 223 268.5 L 219.5 275 Q 210.2 276.4 208 270.5 L 205 257.5 L 205 252.5 L 203 248.5 L 200 233.5 L 198 230.5 L 194 187.5 L 195 186.5 L 197 169.5 L 200 161.5 L 202.5 159 L 212.5 156 Z "/></svg>