<svg viewBox="0 0 610 457" version="1.1" xmlns="http://www.w3.org/2000/svg"><path fill="#000000"  stroke="none" opacity="1" d="M 234.5 26 L 248.5 26 L 259 35.5 L 263 41.5 L 266 58.5 L 265 59.5 L 265 76.5 L 263 86.5 L 255 99.5 L 252 111.5 L 252 117.5 L 260 142.5 L 274.5 164 L 283.5 169 L 291.5 171 L 310 183 Q 308.9 185.7 311.5 185 L 318 190.5 Q 327.9 200.1 331 216.5 L 337.5 223 L 345 226 L 336 200.5 L 334 190.5 L 334 182.5 L 333 181.5 L 333 165.5 L 337 151.5 L 345.5 143 L 359.5 138 L 375.5 141 L 382.5 146 L 384.5 146 L 389 150.5 L 393 157.5 L 395 165.5 L 397 191.5 L 396 193.5 L 397 195.5 L 393 212.5 L 382 232.5 L 380 242.5 L 374 253.5 L 381 266.5 L 390.5 277 L 400.5 284 L 405 285 Q 403.9 287.7 406.5 287 L 421.5 297 L 430 305.5 L 432.5 309 Q 434.8 308.3 434 310.5 Q 437.5 312 436 318.5 L 435 322 Q 432.9 323.6 427.5 323 L 421 319 L 409.5 305 L 391 294 Q 392.1 291.3 389.5 292 L 377 284 L 375.5 281 L 372 278.5 L 368.5 274 L 357.5 276 L 354 273.5 L 353 263.5 L 354 262.5 L 354 249.5 L 348.5 244 L 338.5 238 L 335.5 238 L 320 226.5 L 316 220.5 L 309 201.5 L 302.5 194 L 299.5 192 L 293.5 187 L 272.5 177 L 261 168.5 Q 261.8 166.3 259.5 167 L 246 146.5 L 242.5 137 Q 239.9 136.2 241 139.5 L 232.5 146 L 231 145.5 L 231 148.5 L 235 155.5 L 236 160.5 L 242 171.5 L 245.5 175 L 254.5 182 L 274.5 191 L 289 204.5 L 295 216.5 L 299 230.5 L 306.5 241 L 317.5 247 L 320.5 247 L 326.5 250 L 335 257.5 L 342 269 Q 344.7 267.9 344 270.5 L 359 293 L 362 294.5 L 366.5 300 L 378.5 308 L 389.5 309 L 395.5 311 L 405 319.5 L 418 340.5 L 422 350.5 L 422 356 Q 419.3 354.9 420 357.5 Q 418.5 360.5 412.5 359 L 408 357 L 408 355 Q 405.3 356.1 406 353.5 Q 399.8 334.2 387.5 321 Q 384 318.5 376.5 320 L 367.5 317 L 349 303 L 320 261 L 299.5 252 L 289 242.5 L 285 235.5 L 279 215.5 L 270.5 204 L 263.5 199 L 243.5 190 L 230 178.5 L 221 162.5 L 215 147.5 L 207.5 139 L 198.5 134 L 176.5 126 L 169 118.5 L 166 112.5 L 165 101.5 L 166 100.5 L 166 71.5 L 162 63 L 151.5 58 L 147 53.5 Q 147.3 48.8 150.5 47 L 154.5 46 L 163.5 49 L 175 57.5 L 181 70.5 L 181 82.5 L 182 83.5 Q 179.3 85.3 181 91.5 L 181 93.5 L 180 100.5 L 181 101.5 L 181 109.5 L 187.5 117 L 211.5 126 L 223 135.5 L 225.5 139 L 226 135.5 L 223 134 L 223 127.5 Q 227.1 124.3 226 117 L 219.5 115 L 203 105 L 197 97.5 L 194 90.5 L 193 75.5 L 192 74.5 L 192 51.5 L 191 47.5 L 186.5 43 L 181 40.5 Q 179.8 33.3 184.5 32 Q 197.3 32.6 203 40.5 L 207 48.5 L 207 74.5 L 208 75.5 L 209 89.5 L 217.5 100 L 221.5 102 L 222 99.5 L 217 83.5 L 216 60.5 L 220 42.5 Q 223.5 33.5 230.5 28 L 234.5 26 Z M 357 153 L 351 155 L 349 160 Q 348 163 351 162 L 358 154 L 357 153 Z M 351 187 L 350 189 L 351 189 L 351 187 Z M 351 190 L 350 192 L 351 192 L 351 190 Z M 360 217 L 359 219 L 360 219 L 360 217 Z M 364 226 L 363 228 L 364 228 L 364 226 Z "/><path fill="#000000"  stroke="none" opacity="1" d="M 129.5 57 L 143.5 61 L 150 67.5 L 152 75.5 L 152 97.5 L 150 105.5 L 150 112.5 L 151 113.5 L 152 126.5 Q 156.3 136.3 163.5 143 L 175.5 151 L 181.5 154 L 184.5 154 L 195.5 160 L 209 171.5 L 212 177.5 L 212 181.5 L 215 186.5 L 215 189.5 L 221.5 199 Q 223.8 198.3 223 200.5 L 229.5 206 L 247.5 215 L 250.5 215 L 266.5 224 L 283 238.5 L 289 247.5 L 299 272.5 L 312.5 288 L 319 292 L 325.5 300 L 344 317.5 L 350 326 L 353.5 327 L 373.5 345 L 392 357.5 L 393 363.5 L 390 365 L 388.5 368 L 383.5 369 L 354 347.5 Q 354.8 345.3 352.5 346 L 330 325.5 L 327.5 322 Q 325.3 322.8 326 320.5 L 312.5 307 L 311 307 L 306.5 301 L 290 286.5 L 279 268.5 Q 276.7 256.3 271 247.5 L 260.5 237 L 217.5 215 L 205 203.5 L 199 193.5 L 194 177.5 L 189.5 173 L 162.5 160 L 146 146.5 L 136 129.5 L 134 123.5 Q 135.5 114 133 108.5 L 134 107.5 L 135 81.5 L 136 78.5 L 133.5 72 L 130.5 71 L 125.5 73 L 124 71.5 L 123 62.5 L 126.5 58 L 129.5 57 Z "/></svg>