<svg width="228" height="198" viewBox="0 0 228 198" fill="none" xmlns="http://www.w3.org/2000/svg">
<path d="M191.925 82.1778L185.544 86.7347L162.708 66.4608L156.327 67.2521L139.234 49.3658L126.459 56.0919L100.27 35.0813L64.8213 69.1895L58.4267 68.4664L42.1349 81.7822L35.7403 81.2637L16 99H211L191.925 82.1778ZM85.6749 62.9818L80.4615 76.8979L73.6732 73.337L69.0979 77.3208H64.6719L59.798 82.9146L58.5218 78.5624L48.1628 90.0227L37.5188 87.6761L36.0254 95.3709L32.7806 92.1784L27.6894 95.3709L36.84 84.5245L46.9138 87.1713L58.3996 73.0778L66.7356 73.8964L101.301 39.3107L101.709 63.1182L96.8484 56.051L92.2188 64.4825L85.6749 62.9818ZM139.791 63.2683L138.759 70.1991L136.044 71.3451V81.4275L129.405 78.385L122.427 89.8727L119.711 81.1273L107.492 91.1961L93.4406 91.9191L100.433 87.9217L110.452 79.4765L118.435 71.4542L122.82 69.858L126.418 65.4376L130.165 64.6326L135.596 58.2203L140.13 54.4138L139.791 63.2683ZM153.544 89.1905L147.964 89.7226L151.182 82.669L147.367 73.1187L157.807 85.1521L158.649 92.0556L153.544 89.1905ZM179.502 94.9343L195.292 88.4947L192.047 93.8565L192.577 95.3436L179.502 94.9343ZM66.1382 46.2142C65.8898 40.2548 59.3133 36.8003 54.3008 39.9969C52.1693 41.3572 50.8347 43.6793 50.7288 46.2142C50.7288 50.4982 58.4267 61.6993 58.4267 61.6993C58.4267 61.6993 66.1382 50.4572 66.1382 46.2142ZM55.019 46.2142C55.019 43.5674 57.8701 41.9138 60.1509 43.2372C62.4318 44.5606 62.4318 47.8691 60.1509 49.1925C59.6269 49.4954 59.0322 49.655 58.4267 49.6523C56.5396 49.6523 55.0109 48.1106 55.019 46.2142ZM107.968 12.7472C107.968 6.79196 101.553 3.07007 96.4207 6.0484C94.0394 7.43046 92.5717 9.98312 92.5717 12.7472C92.5717 17.0312 100.27 28.2324 100.27 28.2324C100.27 28.2324 107.968 17.0312 107.968 12.7472ZM96.8484 12.7472C96.8484 10.1004 99.6994 8.44689 101.98 9.77028C104.261 11.0937 104.261 14.4022 101.98 15.7256C101.46 16.0271 100.87 16.1853 100.27 16.1853C98.3771 16.1935 96.8402 14.6491 96.8484 12.7472ZM146.919 27.0454C146.67 21.086 140.094 17.6315 135.081 20.8282C132.95 22.1884 131.615 24.5105 131.509 27.0454C131.509 31.3294 139.221 42.5305 139.221 42.5305C139.221 42.5305 146.919 31.3567 146.919 27.0454ZM135.799 27.0454C135.799 24.3986 138.651 22.745 140.931 24.0684C143.212 25.3918 143.212 28.7003 140.931 30.0237C140.411 30.3252 139.821 30.4835 139.221 30.4835C137.334 30.4835 135.805 28.9418 135.813 27.0454H135.799Z" fill="#339933"/>
<path d="M68.938 119.169V143.012C68.938 147.67 71.3684 150.039 76.1391 150.039C77.3213 150.047 78.4975 149.86 79.6197 149.487C79.8597 149.391 80.1117 149.329 80.3698 149.306C81.3709 149.342 82.1741 150.149 82.2101 151.153C82.2051 151.965 81.673 152.677 80.8999 152.91C79.1916 153.554 77.3843 153.894 75.5591 153.914C68.878 153.914 64.8974 149.999 64.8974 143.433V119.169H61.1169C60.0777 119.123 59.2476 118.285 59.2066 117.242C59.2496 116.213 60.0907 115.4 61.1169 115.395H64.8974V105.235C64.8974 104.127 65.7926 103.227 66.8977 103.227C68.0259 103.193 68.958 104.103 68.958 105.235V115.395H80.3898C81.4329 115.436 82.2691 116.275 82.3101 117.322C82.2621 118.353 81.4179 119.165 80.3898 119.169H68.938ZM53.4757 117.161V147.178C53.4757 152.418 51.8154 156.856 48.665 160.008C45.5145 163.16 40.5737 165.027 35.0029 165.027C29.135 165.064 23.4031 163.256 18.6104 159.857C18.0293 159.447 17.6893 158.774 17.7003 158.06C17.8053 156.989 18.6884 156.163 19.7606 156.133C20.1586 156.143 20.5467 156.253 20.8907 156.454C24.9744 159.538 29.9421 161.215 35.0529 161.233C44.0543 161.233 49.4051 155.902 49.4051 146.967V142.289C45.4645 147.62 40.1937 150.431 34.1027 150.431C25.2014 150.431 16 143.765 16 132.621V132.471C16 121.428 25.3914 114.521 34.1027 114.521C40.1757 114.468 45.8905 117.4 49.4051 122.372V117.171C49.3711 116.039 50.2772 115.103 51.4054 115.103C52.5616 115.062 53.5107 116.011 53.4757 117.171V117.161ZM34.4728 118.426C26.2916 118.426 20.3407 124.269 20.3407 132.32V132.461C20.2886 140.295 26.6676 146.64 34.4728 146.515C41.7639 146.515 49.6351 141.175 49.6351 132.551V132.401C49.6551 123.657 41.9439 118.436 34.4928 118.436L34.4728 118.426ZM180.075 144.317C179.559 144.344 179.075 144.579 178.735 144.969C175.254 148.473 171.384 150.25 167.233 150.25C158.772 150.25 152.151 143.223 152.151 134.308V134.157C152.151 125.303 158.652 118.356 166.943 118.356C172.154 118.356 175.604 120.996 178.305 123.566C178.694 123.902 179.192 124.081 179.705 124.068C180.857 124.103 181.8 123.157 181.765 122C181.762 121.448 181.551 120.917 181.175 120.514C178.175 117.724 173.914 114.491 167.013 114.491C156.431 114.491 147.82 123.366 147.82 134.278V134.418C147.715 145.19 156.341 154.003 167.073 154.085C172.724 154.085 177.214 152.077 181.615 147.58C181.933 147.236 182.112 146.784 182.115 146.315C182.053 145.218 181.168 144.352 180.075 144.317ZM137.789 118.979C140.389 121.589 141.649 125.092 141.649 129.69V151.435C141.649 152.981 139.982 153.946 138.649 153.173C138.03 152.815 137.648 152.152 137.648 151.435V147.419C134.294 151.734 129.097 154.193 123.646 154.045C116.395 154.045 109.044 149.939 109.044 142.098V141.948C109.044 134.308 115.365 129.56 125.547 129.56C129.628 129.519 133.697 130.039 137.638 131.106V129.851C137.638 122.633 133.368 118.667 125.637 118.667C122.006 118.681 118.426 119.523 115.165 121.127C114.887 121.275 114.579 121.358 114.265 121.368C113.226 121.328 112.391 120.493 112.345 119.45C112.362 118.669 112.814 117.964 113.515 117.623C117.38 115.775 121.605 114.808 125.887 114.792C130.957 114.792 135.068 116.258 137.798 118.979H137.789ZM113.355 141.898C113.355 147.369 118.676 150.23 123.916 150.23C131.808 150.23 137.759 145.391 137.759 138.966V134.951C133.718 133.875 129.556 133.325 125.377 133.314C117.965 133.314 113.375 136.567 113.375 141.787L113.355 141.898ZM218.481 150.099L204.079 132.2L217.571 118.436C217.994 118.091 218.234 117.569 218.221 117.021C218.232 115.958 217.37 115.092 216.31 115.103C215.777 115.086 215.262 115.302 214.9 115.696L192.477 138.986V101.069C192.512 99.9125 191.569 98.9658 190.417 99.0009C189.288 99.0009 188.382 99.9366 188.416 101.069V151.435C188.381 152.591 189.324 153.538 190.477 153.503C191.621 153.541 192.548 152.581 192.477 151.435V143.996L201.268 135.101L215.4 152.619C215.782 153.187 216.427 153.521 217.111 153.503C218.21 153.58 219.137 152.691 219.111 151.585C219.102 151.033 218.875 150.506 218.481 150.119V150.099ZM107.214 114.792C102.533 114.792 96.0622 118.055 92.5016 125.183V117.151C92.5016 115.586 90.8134 114.609 89.4632 115.391C88.8371 115.754 88.451 116.426 88.451 117.151V151.435C88.451 153 90.1383 153.977 91.4885 153.195C92.1156 152.832 92.5016 152.161 92.5016 151.435V137.671C92.5016 125.092 100.113 119.902 107.234 119.24C108.422 119.201 109.361 118.215 109.344 117.021C109.389 115.807 108.424 114.797 107.214 114.792Z" fill="#339933"/>
</svg>
