<svg width="195" height="94" viewBox="0 0 195 94" fill="none" xmlns="http://www.w3.org/2000/svg">
<path d="M175.925 77.1778L169.544 81.7347L146.708 61.4608L140.327 62.2521L123.234 44.3658L110.459 51.0919L84.2696 30.0813L48.8213 64.1895L42.4267 63.4664L26.1349 76.7822L19.7403 76.2637L0 94H195L175.925 77.1778ZM69.6749 57.9818L64.4615 71.8979L57.6732 68.337L53.0979 72.3208H48.6719L43.798 77.9146L42.5218 73.5624L32.1628 85.0227L21.5188 82.6761L20.0254 90.3709L16.7806 87.1784L11.6894 90.3709L20.84 79.5245L30.9138 82.1713L42.3996 68.0778L50.7356 68.8964L85.3015 34.3107L85.7088 58.1182L80.8484 51.051L76.2188 59.4825L69.6749 57.9818ZM123.791 58.2683L122.759 65.1991L120.044 66.3451V76.4275L113.405 73.385L106.427 84.8727L103.711 76.1273L91.4924 86.1961L77.4406 86.9191L84.4326 82.9217L94.4521 74.4765L102.435 66.4542L106.82 64.858L110.418 60.4376L114.165 59.6326L119.596 53.2203L124.13 49.4138L123.791 58.2683ZM137.544 84.1905L131.964 84.7226L135.182 77.669L131.367 68.1187L141.807 80.1521L142.649 87.0556L137.544 84.1905ZM163.502 89.9343L179.292 83.4947L176.047 88.8565L176.577 90.3436L163.502 89.9343ZM50.1382 41.2142C49.8898 35.2548 43.3133 31.8003 38.3008 34.9969C36.1693 36.3572 34.8347 38.6793 34.7288 41.2142C34.7288 45.4982 42.4267 56.6993 42.4267 56.6993C42.4267 56.6993 50.1382 45.4572 50.1382 41.2142ZM39.019 41.2142C39.019 38.5674 41.8701 36.9138 44.1509 38.2372C46.4318 39.5606 46.4318 42.8691 44.1509 44.1925C43.6269 44.4954 43.0322 44.655 42.4267 44.6523C40.5396 44.6523 39.0109 43.1106 39.019 41.2142ZM91.9676 7.74724C91.9676 1.79196 85.5526 -1.92993 80.4207 1.0484C78.0394 2.43046 76.5717 4.98312 76.5717 7.74724C76.5717 12.0312 84.2696 23.2324 84.2696 23.2324C84.2696 23.2324 91.9676 12.0312 91.9676 7.74724ZM80.8484 7.74724C80.8484 5.10045 83.6994 3.44689 85.9803 4.77028C88.2612 6.09368 88.2612 9.40217 85.9803 10.7256C85.4603 11.0271 84.8697 11.1853 84.2696 11.1853C82.3771 11.1935 80.8402 9.64912 80.8484 7.74724ZM130.919 22.0454C130.67 16.086 124.094 12.6315 119.081 15.8282C116.95 17.1884 115.615 19.5105 115.509 22.0454C115.509 26.3294 123.221 37.5305 123.221 37.5305C123.221 37.5305 130.919 26.3567 130.919 22.0454ZM119.799 22.0454C119.799 19.3986 122.651 17.745 124.931 19.0684C127.212 20.3918 127.212 23.7003 124.931 25.0237C124.411 25.3252 123.821 25.4835 123.221 25.4835C121.334 25.4835 119.805 23.9418 119.813 22.0454H119.799Z" fill="#66c547"/>
</svg>
