<?xml version="1.0" encoding="utf-8"?>
<svg id="Layer_1" data-name="Layer 1" viewBox="0 0 145 81.68162536621094" xmlns="http://www.w3.org/2000/svg">
  <defs>
    <style>.cls-1{fill:url(#linear-gradient);}.cls-2{fill:#66c547;}</style>
  </defs>
  <title>gtrack_logo_final_versions</title>
  <path class="cls-2" d="M 130.276 57.777 L 125.576 61.117 L 108.756 46.257 L 104.056 46.837 L 91.466 33.727 L 82.056 38.657 L 62.766 23.257 L 36.656 48.257 L 31.946 47.727 L 19.946 57.487 L 15.236 57.107 L 0.696 70.107 L 144.326 70.107 Z M 52.016 43.707 L 48.176 53.907 L 43.176 51.297 L 39.806 54.217 L 36.546 54.217 L 32.956 58.317 L 32.016 55.127 L 24.386 63.527 L 16.546 61.807 L 15.446 67.447 L 13.056 65.107 L 9.306 67.447 L 16.046 59.497 L 23.466 61.437 L 31.926 51.107 L 38.066 51.707 L 63.526 26.357 L 63.826 43.807 L 60.246 38.627 L 56.836 44.807 Z M 91.876 43.917 L 91.116 48.997 L 89.116 49.837 L 89.116 57.227 L 84.226 54.997 L 79.086 63.417 L 77.086 57.007 L 68.086 64.387 L 57.736 64.917 L 62.886 61.987 L 70.266 55.797 L 76.146 49.917 L 79.376 48.747 L 82.026 45.507 L 84.786 44.917 L 88.786 40.217 L 92.126 37.427 Z M 102.006 62.917 L 97.896 63.307 L 100.266 58.137 L 97.456 51.137 L 105.146 59.957 L 105.766 65.017 Z M 121.126 67.127 L 132.756 62.407 L 130.366 66.337 L 130.756 67.427 Z M 37.626 31.417 C 37.443 27.049 32.599 24.517 28.907 26.86 C 27.337 27.857 26.354 29.559 26.276 31.417 C 26.276 34.557 31.946 42.767 31.946 42.767 C 31.946 42.767 37.626 34.527 37.626 31.417 Z M 29.436 31.417 C 29.436 29.477 31.536 28.265 33.216 29.235 C 34.896 30.205 34.896 32.63 33.216 33.6 C 32.83 33.822 32.392 33.939 31.946 33.937 C 30.556 33.937 29.43 32.807 29.436 31.417 Z M 68.436 6.887 C 68.436 2.522 63.711 -0.206 59.931 1.977 C 58.177 2.99 57.096 4.861 57.096 6.887 C 57.096 10.027 62.766 18.237 62.766 18.237 C 62.766 18.237 68.436 10.027 68.436 6.887 Z M 60.246 6.887 C 60.246 4.947 62.346 3.735 64.026 4.705 C 65.706 5.675 65.706 8.1 64.026 9.07 C 63.643 9.291 63.208 9.407 62.766 9.407 C 61.372 9.413 60.24 8.281 60.246 6.887 Z M 97.126 17.367 C 96.943 12.999 92.099 10.467 88.407 12.81 C 86.837 13.807 85.854 15.509 85.776 17.367 C 85.776 20.507 91.456 28.717 91.456 28.717 C 91.456 28.717 97.126 20.527 97.126 17.367 Z M 88.936 17.367 C 88.936 15.427 91.036 14.215 92.716 15.185 C 94.396 16.155 94.396 18.58 92.716 19.55 C 92.333 19.771 91.898 19.887 91.456 19.887 C 90.066 19.887 88.94 18.757 88.946 17.367 Z"/>
</svg>
