<svg width="204" height="67" viewBox="0 0 204 67" fill="none" xmlns="http://www.w3.org/2000/svg">
<path d="M52.938 20.1693V44.0118C52.938 48.6699 55.3684 51.0391 60.1391 51.0391C61.3213 51.0471 62.4975 50.8604 63.6197 50.487C63.8597 50.3906 64.1117 50.3294 64.3698 50.3063C65.3709 50.3424 66.1741 51.1485 66.2101 52.1534C66.2051 52.9646 65.673 53.6774 64.8999 53.9103C63.1916 54.5538 61.3843 54.8941 59.5591 54.9142C52.878 54.9142 48.8974 50.999 48.8974 44.4335V20.1693H45.1169C44.0777 20.1231 43.2476 19.2848 43.2066 18.2418C43.2496 17.2128 44.0907 16.3996 45.1169 16.3946H48.8974V6.23515C48.8974 5.12685 49.7926 4.22736 50.8977 4.22736C52.0259 4.19322 52.958 5.10276 52.958 6.23515V16.3946H64.3898C65.4329 16.4358 66.2691 17.275 66.3101 18.3221C66.2621 19.3531 65.4179 20.1652 64.3898 20.1693H52.938ZM37.4757 18.1615V48.178C37.4757 53.4184 35.8154 57.8556 32.665 61.0078C29.5145 64.1601 24.5737 66.0273 19.0029 66.0273C13.135 66.0644 7.40313 64.2564 2.6104 60.8572C2.02931 60.4466 1.68925 59.774 1.70026 59.0603C1.80527 57.9891 2.6884 57.1629 3.76057 57.1328C4.15863 57.1428 4.54669 57.2532 4.89074 57.454C8.97436 60.538 13.9421 62.2145 19.0529 62.2326C28.0543 62.2326 33.4051 56.9019 33.4051 47.9672V43.289C29.4645 48.6197 24.1937 51.4306 18.1027 51.4306C9.20139 51.4306 0 44.7648 0 33.6215V33.4709C0 22.428 9.39142 15.5212 18.1027 15.5212C24.1757 15.468 29.8905 18.4004 33.4051 23.3717V18.1715C33.3711 17.0391 34.2772 16.1035 35.4054 16.1035C36.5616 16.0623 37.5107 17.011 37.4757 18.1715V18.1615ZM18.4728 19.4264C10.2916 19.4264 4.34066 25.2691 4.34066 33.3203V33.4609C4.28865 41.2953 10.6676 47.6399 18.4728 47.5154C25.7639 47.5154 33.6351 42.1747 33.6351 33.5512V33.4006C33.6551 24.6567 25.9439 19.4364 18.4928 19.4364L18.4728 19.4264ZM164.075 45.3169C163.559 45.344 163.075 45.5789 162.735 45.9694C159.254 49.473 155.384 51.2499 151.233 51.2499C142.772 51.2499 136.151 44.2226 136.151 35.308V35.1575C136.151 26.3031 142.652 19.3561 150.943 19.3561C156.154 19.3561 159.604 21.9963 162.305 24.5663C162.694 24.9016 163.192 25.0813 163.705 25.0683C164.857 25.1034 165.8 24.1567 165.765 23.0002C165.762 22.4481 165.551 21.917 165.175 21.5145C162.175 18.7236 157.914 15.4911 151.013 15.4911C140.431 15.4911 131.82 24.3655 131.82 35.2779V35.4185C131.715 46.1903 140.341 55.0025 151.073 55.0848C156.724 55.0848 161.214 53.077 165.615 48.5796C165.933 48.2362 166.112 47.7845 166.115 47.3147C166.053 46.2184 165.168 45.352 164.075 45.3169ZM121.789 19.9785C124.389 22.5886 125.649 26.0923 125.649 30.6901V52.4345C125.649 53.9805 123.982 54.9463 122.649 54.1733C122.03 53.8149 121.648 53.1523 121.648 52.4345V48.4189C118.294 52.7337 113.097 55.1932 107.646 55.0447C100.395 55.0447 93.0441 50.9387 93.0441 43.0983V42.9477C93.0441 35.308 99.3651 30.5596 109.547 30.5596C113.628 30.5194 117.697 31.0395 121.638 32.1056V30.8507C121.638 23.6327 117.368 19.6673 109.637 19.6673C106.006 19.6814 102.426 20.5226 99.1651 22.1269C98.887 22.2754 98.579 22.3577 98.2649 22.3678C97.2258 22.3276 96.3906 21.4934 96.3446 20.4503C96.3616 19.6693 96.8137 18.9636 97.5148 18.6233C101.38 16.7751 105.605 15.8083 109.887 15.7923C114.957 15.7923 119.068 17.2579 121.798 19.9785H121.789ZM97.3548 42.8975C97.3548 48.3687 102.676 51.2299 107.916 51.2299C115.808 51.2299 121.759 46.3911 121.759 39.9661V35.9505C117.718 34.8754 113.556 34.3252 109.377 34.3142C101.965 34.3142 97.3748 37.5668 97.3748 42.7871L97.3548 42.8975ZM202.481 51.0993L188.079 33.1998L201.571 19.4364C201.994 19.0911 202.234 18.569 202.221 18.0209C202.232 16.9578 201.37 16.0924 200.31 16.1035C199.777 16.0864 199.262 16.3022 198.9 16.6958L176.477 39.9862V2.06898C176.512 0.912487 175.569 -0.0341889 174.417 0.000947549C173.288 0.000947549 172.382 0.936581 172.416 2.06898V52.4345C172.381 53.591 173.324 54.5377 174.477 54.5026C175.621 54.5407 176.548 53.581 176.477 52.4345V44.9956L185.268 36.1011L199.4 53.6191C199.782 54.1873 200.427 54.5206 201.111 54.5026C202.21 54.5799 203.137 53.6914 203.111 52.5851C203.102 52.033 202.875 51.5059 202.481 51.1194V51.0993ZM91.2139 15.7923C86.5331 15.7923 80.0622 19.0549 76.5016 26.1826V18.1514C76.5016 16.5863 74.8134 15.6085 73.4632 16.3906C72.8371 16.754 72.451 17.4256 72.451 18.1514V52.4345C72.451 53.9996 74.1383 54.9774 75.4885 54.1954C76.1156 53.832 76.5016 53.1614 76.5016 52.4345V38.6711C76.5016 26.0923 84.1128 20.9021 91.2339 20.2395C92.422 20.2014 93.3612 19.2145 93.3442 18.0209C93.3892 16.8072 92.424 15.7973 91.2139 15.7923Z" fill="#66c547"/>
</svg>
